<mxfile host="app.diagrams.net" modified="2024-07-12T12:06:21.586Z" agent="Mozilla/5.0 (Windows NT 10.0; Win64; x64) AppleWebKit/537.36 (KHTML, like Gecko) Chrome/126.0.0.0 Safari/537.36" etag="uvXRj2ck_OP9EtnMAyys" version="24.6.5" type="google">
  <diagram name="Page-1" id="2xAWyOZL0zCjW-eJIUMe">
    <mxGraphModel grid="1" page="1" gridSize="10" guides="1" tooltips="1" connect="1" arrows="1" fold="1" pageScale="1" pageWidth="1100" pageHeight="850" math="0" shadow="0">
      <root>
        <mxCell id="0" />
        <mxCell id="1" parent="0" />
        <mxCell id="B14xlJ3VBhZn96622r-5-1" value="&lt;font style=&quot;font-size: 16px;&quot;&gt;&lt;b&gt;&amp;nbsp;Shiny session&lt;/b&gt;&lt;/font&gt;" style="rounded=0;whiteSpace=wrap;html=1;dashed=1;dashPattern=12 12;verticalAlign=top;align=left;" vertex="1" parent="1">
          <mxGeometry x="180" y="160" width="660" height="340" as="geometry" />
        </mxCell>
        <mxCell id="B14xlJ3VBhZn96622r-5-2" value="&lt;font style=&quot;font-size: 14px;&quot;&gt;&lt;b&gt;&amp;nbsp;User Interface (UI) [&lt;font color=&quot;#ff0000&quot;&gt;website&lt;/font&gt;]&lt;/b&gt;&lt;/font&gt;" style="rounded=0;whiteSpace=wrap;html=1;verticalAlign=top;align=left;" vertex="1" parent="1">
          <mxGeometry x="200" y="200" width="620" height="120" as="geometry" />
        </mxCell>
        <mxCell id="B14xlJ3VBhZn96622r-5-3" value="&lt;font style=&quot;font-size: 14px;&quot;&gt;&lt;b&gt;&amp;nbsp;Server function&lt;/b&gt;&lt;/font&gt;" style="rounded=0;whiteSpace=wrap;html=1;verticalAlign=top;align=left;" vertex="1" parent="1">
          <mxGeometry x="200" y="340" width="620" height="140" as="geometry" />
        </mxCell>
        <mxCell id="DaP9OWPSu1xErMpqYzI0-17" style="edgeStyle=orthogonalEdgeStyle;rounded=0;orthogonalLoop=1;jettySize=auto;html=1;exitX=0.5;exitY=1;exitDx=0;exitDy=0;entryX=0.5;entryY=0;entryDx=0;entryDy=0;" edge="1" parent="1" source="B14xlJ3VBhZn96622r-5-4" target="B14xlJ3VBhZn96622r-5-6">
          <mxGeometry relative="1" as="geometry" />
        </mxCell>
        <mxCell id="B14xlJ3VBhZn96622r-5-4" value="&lt;span style=&quot;font-size: 18px;&quot;&gt;&lt;font style=&quot;font-size: 18px;&quot;&gt;Input&lt;/font&gt;&lt;/span&gt;" style="rounded=1;whiteSpace=wrap;html=1;fontSize=18;fontStyle=1" vertex="1" parent="1">
          <mxGeometry x="240" y="240" width="120" height="60" as="geometry" />
        </mxCell>
        <mxCell id="B14xlJ3VBhZn96622r-5-5" value="&lt;font style=&quot;font-size: 18px;&quot;&gt;Output&lt;/font&gt;" style="rounded=1;whiteSpace=wrap;html=1;fontSize=18;fontStyle=1" vertex="1" parent="1">
          <mxGeometry x="640" y="240" width="120" height="60" as="geometry" />
        </mxCell>
        <mxCell id="B14xlJ3VBhZn96622r-5-9" style="edgeStyle=orthogonalEdgeStyle;rounded=0;orthogonalLoop=1;jettySize=auto;html=1;exitX=0.5;exitY=0;exitDx=0;exitDy=0;entryX=0.5;entryY=1;entryDx=0;entryDy=0;" edge="1" parent="1" source="B14xlJ3VBhZn96622r-5-8" target="B14xlJ3VBhZn96622r-5-5">
          <mxGeometry relative="1" as="geometry" />
        </mxCell>
        <mxCell id="DaP9OWPSu1xErMpqYzI0-18" style="edgeStyle=orthogonalEdgeStyle;rounded=0;orthogonalLoop=1;jettySize=auto;html=1;exitX=1;exitY=0.5;exitDx=0;exitDy=0;entryX=0;entryY=0.5;entryDx=0;entryDy=0;" edge="1" parent="1" source="B14xlJ3VBhZn96622r-5-16" target="B14xlJ3VBhZn96622r-5-8">
          <mxGeometry relative="1" as="geometry" />
        </mxCell>
        <mxCell id="DaP9OWPSu1xErMpqYzI0-6" style="edgeStyle=orthogonalEdgeStyle;rounded=0;orthogonalLoop=1;jettySize=auto;html=1;exitX=1;exitY=0.5;exitDx=0;exitDy=0;entryX=0;entryY=0.5;entryDx=0;entryDy=0;" edge="1" parent="1" source="B14xlJ3VBhZn96622r-5-6" target="B14xlJ3VBhZn96622r-5-16">
          <mxGeometry relative="1" as="geometry" />
        </mxCell>
        <mxCell id="DaP9OWPSu1xErMpqYzI0-14" value="Â© Jonas Lieth" style="text;html=1;strokeColor=none;fillColor=none;align=center;verticalAlign=bottom;whiteSpace=wrap;rounded=0;" vertex="1" parent="1">
          <mxGeometry x="182" y="470" width="80" height="30" as="geometry" />
        </mxCell>
        <mxCell id="DaP9OWPSu1xErMpqYzI0-19" value="" style="rounded=0;whiteSpace=wrap;html=1;fillStyle=cross-hatch;fillColor=#fa6800;strokeColor=#C73500;fontColor=#000000;opacity=50;rotation=-180;" vertex="1" parent="1">
          <mxGeometry x="510" y="340" width="310" height="140" as="geometry" />
        </mxCell>
        <mxCell id="DaP9OWPSu1xErMpqYzI0-24" value="" style="rounded=0;whiteSpace=wrap;html=1;fillStyle=dashed;fillColor=#1ba1e2;strokeColor=#006EAF;fontColor=#ffffff;gradientColor=none;opacity=50;fontStyle=1" vertex="1" parent="1">
          <mxGeometry x="200" y="340" width="310" height="140" as="geometry" />
        </mxCell>
        <mxCell id="B14xlJ3VBhZn96622r-5-6" value="&lt;font style=&quot;font-size: 18px;&quot;&gt;&lt;span style=&quot;font-size: 18px;&quot;&gt;Event&lt;br&gt;&lt;font face=&quot;Courier New&quot; color=&quot;#008080&quot;&gt;input$...&lt;br&gt;&lt;/font&gt;&lt;/span&gt;&lt;/font&gt;" style="rounded=1;whiteSpace=wrap;html=1;fontSize=18;fontStyle=1" vertex="1" parent="1">
          <mxGeometry x="240" y="390" width="120" height="60" as="geometry" />
        </mxCell>
        <mxCell id="B14xlJ3VBhZn96622r-5-16" value="Reactive&lt;br&gt;&lt;font face=&quot;Courier New&quot; color=&quot;#008080&quot;&gt;reactive()&lt;br&gt;&lt;/font&gt;" style="rounded=1;whiteSpace=wrap;html=1;fontSize=18;fontStyle=1" vertex="1" parent="1">
          <mxGeometry x="450" y="390" width="120" height="60" as="geometry" />
        </mxCell>
        <mxCell id="B14xlJ3VBhZn96622r-5-8" value="Render&lt;br&gt;&lt;font face=&quot;Courier New&quot; color=&quot;#008080&quot;&gt;output$...&lt;br&gt;&lt;/font&gt;" style="rounded=1;whiteSpace=wrap;html=1;fontSize=18;fontStyle=1" vertex="1" parent="1">
          <mxGeometry x="640" y="390" width="120" height="60" as="geometry" />
        </mxCell>
      </root>
    </mxGraphModel>
  </diagram>
</mxfile>
